<svg width="38" height="38" viewBox="0 0 38 38" fill="none" xmlns="http://www.w3.org/2000/svg">
<path fill-rule="evenodd" clip-rule="evenodd" d="M23.1405 2.52544C23.3723 2.65447 23.5542 2.85743 23.6573 3.10193C23.7603 3.34644 23.7785 3.6184 23.7089 3.87444L20.5549 15.4375H32.0625C32.294 15.4375 32.5203 15.5052 32.7138 15.6321C32.9073 15.7591 33.0595 15.9398 33.1517 16.152C33.2439 16.3643 33.272 16.5989 33.2327 16.8269C33.1933 17.055 33.0882 17.2666 32.9302 17.4357L16.3052 35.2482C16.1241 35.4426 15.8831 35.5707 15.6206 35.612C15.3582 35.6532 15.0894 35.6053 14.8574 35.4758C14.6254 35.3463 14.4436 35.1427 14.3409 34.8977C14.2383 34.6526 14.2208 34.3802 14.2912 34.124L17.4452 22.5625H5.93755C5.70613 22.5625 5.47975 22.4949 5.28625 22.3679C5.09275 22.241 4.94056 22.0603 4.84838 21.848C4.75621 21.6357 4.72807 21.4011 4.76742 21.1731C4.80677 20.945 4.9119 20.7335 5.06988 20.5644L21.6949 2.75185C21.876 2.55813 22.1167 2.43058 22.3787 2.38955C22.6406 2.34852 22.9088 2.39635 23.1405 2.52544Z" fill="white"/>
</svg>
