<svg width="34" height="34" viewBox="0 0 34 34" fill="none" xmlns="http://www.w3.org/2000/svg">
<path d="M6.96008 3.7655C9.89967 3.383 12.8959 3.1875 15.9375 3.1875C18.9791 3.1875 21.9753 3.38442 24.9149 3.7655C27.6377 4.11967 29.5772 6.40192 29.7387 9.04542C29.2651 8.88763 28.7742 8.78728 28.2767 8.7465C24.3074 8.417 20.3176 8.417 16.3483 8.7465C13.0078 9.02417 10.625 11.849 10.625 15.028V21.0998C10.6237 22.2668 10.9448 23.4115 11.5531 24.4075C12.1613 25.4035 13.033 26.212 14.0717 26.7438L10.3133 30.5008C10.1647 30.6492 9.97551 30.7503 9.76953 30.7912C9.56354 30.8321 9.35006 30.8111 9.15602 30.7307C8.96199 30.6504 8.79612 30.5144 8.67936 30.3398C8.5626 30.1652 8.50018 29.96 8.5 29.75V24.0408C7.98603 23.9862 7.47269 23.9257 6.96008 23.8595C4.11542 23.4883 2.125 21.0134 2.125 18.2212V9.40383C2.125 6.613 4.11542 4.13525 6.96008 3.7655Z" fill="white"/>
<path d="M22.3125 10.625C20.3632 10.625 18.4322 10.7058 16.524 10.8644C14.3423 11.0458 12.75 12.8959 12.75 15.0294V21.0998C12.75 23.2348 14.348 25.0863 16.5325 25.2648C18.2934 25.4093 20.0742 25.4873 21.8705 25.4986L25.8117 29.4383C25.9603 29.5867 26.1495 29.6878 26.3555 29.7287C26.5615 29.7696 26.7749 29.7486 26.969 29.6682C27.163 29.5879 27.3289 29.4519 27.4456 29.2773C27.5624 29.1028 27.6248 28.8975 27.625 28.6875V25.3017L28.0925 25.2648C30.277 25.0878 31.875 23.2348 31.875 21.0998V15.028C31.875 12.8959 30.2812 11.0458 28.101 10.863C26.1756 10.7038 24.2445 10.6244 22.3125 10.625Z" fill="white"/>
</svg>
