<svg width="38" height="38" viewBox="0 0 38 38" fill="none" xmlns="http://www.w3.org/2000/svg">
<path fill-rule="evenodd" clip-rule="evenodd" d="M13.6214 6.01509C14.2895 5.24436 15.1157 4.62643 16.0437 4.20325C16.9718 3.78006 17.98 3.56153 19 3.5625C21.1486 3.5625 23.0739 4.5125 24.3786 6.01509C25.3962 5.94243 26.4175 6.08964 27.3732 6.44671C28.3288 6.80379 29.1965 7.36237 29.9171 8.0845C30.6389 8.80502 31.1973 9.67239 31.5544 10.6277C31.9115 11.5831 32.0588 12.6041 31.9865 13.6214C32.7569 14.2897 33.3746 15.1159 33.7975 16.0439C34.2204 16.972 34.4387 17.9801 34.4375 19C34.4385 20.02 34.2199 21.0282 33.7968 21.9563C33.3736 22.8844 32.7556 23.7105 31.9849 24.3786C32.0572 25.3959 31.9099 26.4169 31.5528 27.3723C31.1958 28.3276 30.6374 29.195 29.9155 29.9155C29.195 30.6373 28.3276 31.1957 27.3723 31.5528C26.4169 31.9099 25.3959 32.0572 24.3786 31.9849C23.7105 32.7556 22.8844 33.3736 21.9563 33.7968C21.0282 34.2199 20.02 34.4385 19 34.4375C17.98 34.4385 16.9718 34.2199 16.0437 33.7968C15.1157 33.3736 14.2895 32.7556 13.6214 31.9849C12.6039 32.0578 11.5827 31.9108 10.627 31.554C9.67137 31.1972 8.80369 30.6389 8.08292 29.9171C7.36087 29.1964 6.80235 28.3288 6.44528 27.3731C6.08821 26.4175 5.94095 25.3962 6.01351 24.3786C5.24307 23.7103 4.62544 22.8841 4.20253 21.9561C3.77962 21.028 3.56134 20.0199 3.5625 19C3.5625 16.8514 4.5125 14.9261 6.01509 13.6214C5.94266 12.6041 6.08998 11.5831 6.44705 10.6277C6.80412 9.67231 7.36258 8.80496 8.08451 8.0845C8.80496 7.36258 9.67232 6.80412 10.6277 6.44705C11.5831 6.08998 12.6041 5.94266 13.6214 6.01509ZM24.7158 16.1278C24.8108 16.0013 24.8796 15.857 24.918 15.7034C24.9564 15.5499 24.9638 15.3902 24.9396 15.2338C24.9155 15.0774 24.8603 14.9274 24.7774 14.7926C24.6944 14.6578 24.5853 14.541 24.4566 14.4489C24.3278 14.3569 24.182 14.2916 24.0276 14.2567C23.8732 14.2218 23.7134 14.2182 23.5576 14.246C23.4018 14.2738 23.2531 14.3324 23.1203 14.4185C22.9875 14.5046 22.8732 14.6163 22.7842 14.7472L17.6605 21.9197L15.0892 19.3483C14.8641 19.1386 14.5663 19.0244 14.2587 19.0298C13.951 19.0352 13.6575 19.1599 13.4399 19.3774C13.2224 19.595 13.0977 19.8885 13.0923 20.1962C13.0869 20.5038 13.2011 20.8016 13.4108 21.0267L16.9733 24.5892C17.0952 24.711 17.2422 24.8048 17.404 24.8641C17.5658 24.9234 17.7386 24.9468 17.9103 24.9326C18.082 24.9185 18.2486 24.8671 18.3985 24.7821C18.5484 24.6971 18.678 24.5805 18.7783 24.4403L24.7158 16.1278Z" fill="white"/>
</svg>
