<svg width="36" height="36" viewBox="0 0 36 36" fill="none" xmlns="http://www.w3.org/2000/svg">
<path d="M17.4675 31.365L17.457 31.3605L17.424 31.3425C17.2309 31.2363 17.0394 31.1272 16.8495 31.0155C14.5662 29.6587 12.4324 28.0649 10.4835 26.2605C7.032 23.04 3.375 18.261 3.375 12.375C3.375 7.98298 7.071 4.49998 11.532 4.49998C12.7721 4.49391 13.9977 4.7675 15.1175 5.30039C16.2373 5.83329 17.2226 6.61179 18 7.57798C18.7776 6.61159 19.7631 5.83297 20.8832 5.30007C22.0033 4.76716 23.2291 4.49368 24.4695 4.49998C28.929 4.49998 32.625 7.98298 32.625 12.375C32.625 18.2625 28.968 23.0415 25.5165 26.259C23.5676 28.0634 21.4338 29.6573 19.1505 31.014C18.9606 31.1262 18.7691 31.2358 18.576 31.3425L18.543 31.3605L18.5325 31.3665L18.528 31.368C18.3653 31.4541 18.1841 31.4992 18 31.4992C17.8159 31.4992 17.6347 31.4541 17.472 31.368L17.4675 31.365Z" fill="white"/>
</svg>
